<svg xmlns="http://www.w3.org/2000/svg" version="1.1" xmlns:xlink="http://www.w3.org/1999/xlink" xmlns:svgjs="http://svgjs.dev/svgjs" width="1000" height="623" viewBox="0 0 1000 623"><g transform="matrix(1,0,0,1,-0.6060606060606233,0.2522267206477409)"><svg viewBox="0 0 396 247" data-background-color="#ffffff" preserveAspectRatio="xMidYMid meet" height="623" width="1000" xmlns="http://www.w3.org/2000/svg" xmlns:xlink="http://www.w3.org/1999/xlink"><g id="tight-bounds" transform="matrix(1,0,0,1,0.2400000000000091,-0.09999999999999432)"><svg viewBox="0 0 395.52 247.2" height="247.2" width="395.52"><g><svg></svg></g><g><svg viewBox="0 0 395.52 247.2" height="247.2" width="395.52"><g transform="matrix(1,0,0,1,75.54432,49.740106577629376)"><svg viewBox="0 0 244.43135999999998 147.71978684474124" height="147.71978684474124" width="244.43135999999998"><g><svg viewBox="0 0 244.43135999999998 147.71978684474124" height="147.71978684474124" width="244.43135999999998"><g><svg viewBox="0 0 244.43135999999998 147.71978684474124" height="147.71978684474124" width="244.43135999999998"><g><svg viewBox="0 0 244.43135999999998 147.71978684474124" height="147.71978684474124" width="244.43135999999998"><g id="textblocktransform"><svg viewBox="0 0 244.43135999999998 147.71978684474124" height="147.71978684474124" width="244.43135999999998" id="textblock"><g><svg viewBox="0 0 244.43135999999998 147.71978684474124" height="147.71978684474124" width="244.43135999999998"><g transform="matrix(1,0,0,1,0,0)"><svg width="244.43135999999998" viewBox="1.2999999523162842 -35.599998474121094 59.900001525878906 36.19999694824219" height="147.71978684474124" data-palette-color="#f012be"><path d="M12.55 0.6L12.55 0.6Q7.45 0.6 4.38-2.27 1.3-5.15 1.3-10.45L1.3-10.45 7.7-10.45Q7.75-8 8.85-6.55 9.95-5.1 12.4-5.1L12.4-5.1Q14.7-5.1 15.75-6.48 16.8-7.85 16.8-10.1L16.8-10.1 16.8-35 23.2-35 23.2-10.1Q23.2-4.95 20.33-2.18 17.45 0.6 12.55 0.6ZM45.85 0.6L45.85 0.6Q40.55 0.6 36.75-1.68 32.95-3.95 30.9-8.03 28.85-12.1 28.85-17.45L28.85-17.45Q28.85-22.8 30.9-26.9 32.95-31 36.75-33.3 40.55-35.6 45.85-35.6L45.85-35.6Q52.15-35.6 56.17-32.48 60.2-29.35 61.2-23.7L61.2-23.7 54.15-23.7Q53.5-26.55 51.37-28.18 49.25-29.8 45.75-29.8L45.75-29.8Q40.9-29.8 38.15-26.5 35.4-23.2 35.4-17.45L35.4-17.45Q35.4-11.7 38.15-8.43 40.9-5.15 45.75-5.15L45.75-5.15Q49.25-5.15 51.37-6.68 53.5-8.2 54.15-10.9L54.15-10.9 61.2-10.9Q60.2-5.5 56.17-2.45 52.15 0.6 45.85 0.6Z" opacity="1" transform="matrix(1,0,0,1,0,0)" fill="#ffffff" class="undefined-text-0" data-fill-palette-color="primary" id="text-0"></path></svg></g></svg></g></svg></g></svg></g></svg></g></svg></g></svg></g><g><path d="M245.816 0c68.262 0 123.6 55.338 123.6 123.6 0 68.262-55.338 123.6-123.6 123.6-32.102 0-61.345-12.238-83.32-32.304l10.239 0c20.019 16.045 45.429 25.643 73.081 25.643 64.584 0 116.939-52.355 116.939-116.939 0-64.584-52.355-116.939-116.939-116.939-27.652 0-53.061 9.597-73.081 25.643l-10.239 0c21.974-20.065 51.218-32.304 83.32-32.304z" fill="#ffffff" stroke="transparent" data-fill-palette-color="tertiary"></path></g></svg></g><defs></defs></svg><rect width="395.52" height="247.2" fill="none" stroke="none" visibility="hidden"></rect></g></svg></g></svg>